<?xml version="1.0" standalone="no"?>
<!DOCTYPE svg PUBLIC "-//W3C//DTD SVG 20001102//EN" "http://www.w3.org/TR/2000/CR-SVG-20001102/DTD/svg-20001102.dtd">
<svg width="100%" height="100%">
<defs>
<font horiz-adv-x="1177">
<font-face font-family="Roboto" units-per-em="2048" panose-1="0 0 0 0 0 0 0 0 0 0" ascent="1900" descent="-500" baseline="0" />
<missing-glyph horiz-adv-x="509" d="" />
<glyph unicode=" " horiz-adv-x="509" glyph-name="space"/>
<glyph unicode="!" horiz-adv-x="539" glyph-name="exclam" d="M368 478H171V1456H368V478ZM369 0H171V204H369V0Z"/>
<glyph unicode="&quot;" horiz-adv-x="733" glyph-name="quotedbl" d="M633 1186L532 936H435V1456H633V1186ZM324 1186L223 936H126L127 1176V1456H324V1186Z"/>
<glyph unicode="#" horiz-adv-x="1276" glyph-name="numbersign" d="M712 410H457L377 0H226L306 410H70V550H334L402 898H146V1040H430L512 1456H663L581 1040H836L918 1456H1069L987 1040H1186V898H960L892 550H1111V410H864L784 0H632L712 410ZM485 550H740L808 898H553L485 550Z"/>
<glyph unicode="$" horiz-adv-x="1193" glyph-name="dollar" d="M865 376Q865 466 802 530T591 643Q389 704 286 806T183 1078Q183 1243 278 1347T539 1472V1693H697V1471Q864 1449 957 1334T1049 1026H853Q853 1153 790 1232T616 1311Q498 1311 439 1250T380 1081Q380 984 441 924T660 810Q864 744 963 646T1062 378Q1062 206 959 105T676 -16V-208H519V-17Q347 1 237 109T131 424L133 429H323Q323 275 401 210T591 144Q720 144 793 206T865 376Z"/>
<glyph unicode="%" horiz-adv-x="1498" glyph-name="percent" d="M104 1176Q104 1303 186 1390T405 1477Q542 1477 624 1391T706 1176V1099Q706 972 625 886T407 800Q269 800 187 886T104 1099V1176ZM250 1099Q250 1025 291 974T407 922Q480 922 520 973T560 1099V1176Q560 1250 520 1303T405 1355Q330 1355 290 1303T250 1176V1099ZM809 357Q809 484 891 571T1110 657Q1246 657 1329 571T1411 357V279Q1411 151 1329 65T1112 -21Q974 -21 892 65T809 279V357ZM955 279Q955 204 996 153T1112 101Q1185 101 1225 153T1265 279V357Q1265 431 1224 483T1110 535Q1036 535 996 483T955 357V279ZM458 110L349 177L1060 1315L1169 1248L458 110Z"/>
<glyph unicode="&amp;" horiz-adv-x="1276" glyph-name="ampersand" d="M64 392Q64 514 135 606T345 789Q267 888 229 966T191 1125Q191 1294 289 1386T557 1477Q715 1477 814 1386T913 1167Q913 1069 861 998T705 851L596 771L936 362Q977 427 1000 506T1023 673H1199Q1199 541 1160 429T1047 228L1232 5L1230 0H1001L916 102Q836 42 739 11T538 -21Q321 -21 193 94T64 392ZM538 133Q610 133 680 158T812 228L451 663L411 634Q320 566 291 504T261 392Q261 279 332 206T538 133ZM388 1127Q388 1074 415 1017T496 891L634 986Q691 1024 712 1069T732 1167Q732 1228 684 1275T557 1322Q476 1322 432 1266T388 1127Z"/>
<glyph unicode="&apos;" horiz-adv-x="445" glyph-name="quotesingle" d="M324 1233L223 951H126L127 1216V1456H324V1233Z"/>
<glyph unicode="(" horiz-adv-x="679" glyph-name="parenleft" d="M132 591Q132 985 291 1264T625 1636L631 1635L669 1519Q532 1412 431 1176T329 593V580Q329 233 430 -3T669 -355L631 -463H625Q450 -370 291 -91T132 582V591Z"/>
<glyph unicode=")" horiz-adv-x="687" glyph-name="parenright" d="M543 582Q543 187 384 -91T50 -463H44L6 -355Q141 -250 244 -9T346 580V593Q346 935 241 1177T6 1528L44 1636H50Q224 1543 384 1264T543 591V582Z"/>
<glyph unicode="*" horiz-adv-x="884" glyph-name="asterisk" d="M324 696L88 763L137 917L373 827L363 1081H524L514 821L747 910L795 754L553 686L706 486L574 390L434 608L299 398L166 490L324 696Z"/>
<glyph unicode="+" horiz-adv-x="1162" glyph-name="plus" d="M677 783H1076V605H677V146H480V605H78V783H480V1206H677V783Z"/>
<glyph unicode="," horiz-adv-x="404" glyph-name="comma" d="M315 48L165 -258H48L118 58V221H315V48Z"/>
<glyph unicode="-" horiz-adv-x="923" glyph-name="hyphen" d="M757 538H167V692H757V538Z"/>
<glyph unicode="." horiz-adv-x="548" glyph-name="period" d="M358 0H161V202H358V0Z"/>
<glyph unicode="/" horiz-adv-x="850" glyph-name="slash" d="M184 -125H16L624 1456H791L184 -125Z"/>
<glyph unicode="0" horiz-adv-x="1153" glyph-name="zero" d="M1040 514Q1040 267 915 123T577 -21Q366 -21 240 123T113 514V942Q113 1187 239 1332T575 1477Q787 1477 914 1332T1040 942V514ZM843 983Q843 1140 773 1231T575 1322Q448 1322 379 1231T310 983V474Q310 317 381 225T577 133Q705 133 774 225T843 474V983Z"/>
<glyph unicode="1" horiz-adv-x="1153" glyph-name="one" d="M710 0H512V1274L195 1271V1423L710 1477V0Z"/>
<glyph unicode="2" horiz-adv-x="1153" glyph-name="two" d="M1054 0H150V135L607 680Q729 828 773 916T816 1092Q816 1193 757 1258T594 1322Q465 1322 398 1243T330 1046H140L138 1052Q133 1230 257 1354T594 1477Q789 1477 901 1369T1013 1090Q1013 975 950 865T756 589L389 159L391 154H1054V0Z"/>
<glyph unicode="3" horiz-adv-x="1153" glyph-name="three" d="M579 828Q711 828 766 894T820 1077Q820 1187 761 1255T584 1322Q470 1322 396 1252T321 1075H133L130 1081Q125 1245 254 1361T584 1477Q787 1477 902 1375T1017 1073Q1017 971 964 887T814 756Q924 712 982 623T1039 406Q1039 206 913 93T584 -21Q398 -21 257 89T120 378L122 384H310Q310 278 387 206T584 133Q704 133 773 208T842 402Q842 539 779 607T579 675H417V828H579Z"/>
<glyph unicode="4" horiz-adv-x="1153" glyph-name="four" d="M893 490H1094V336H893V0H697V336H72V447L685 1456H893V490ZM283 490H697V1173L691 1174L672 1124L283 490Z"/>
<glyph unicode="5" horiz-adv-x="1153" glyph-name="five" d="M175 647L259 1456H988V1281H425L378 862Q425 897 482 920T612 943Q814 945 929 817T1043 464Q1043 245 926 112T583 -21Q398 -21 275 80T157 377L159 383H337Q337 264 406 199T583 133Q708 133 777 221T846 462Q846 601 777 687T583 773Q467 773 415 738T338 630L175 647Z"/>
<glyph unicode="6" horiz-adv-x="1153" glyph-name="six" d="M641 1477Q727 1477 811 1460T950 1417L908 1266Q851 1291 788 1307T641 1322Q504 1322 419 1205T333 909V796Q394 857 478 892T657 927Q845 927 955 801T1064 470Q1064 246 942 113T611 -21Q409 -21 273 133T137 552V887Q137 1143 283 1310T641 1477ZM594 780Q501 780 435 741T333 634V533Q333 348 414 241T611 133Q734 133 801 227T867 470Q867 612 796 696T594 780Z"/>
<glyph unicode="7" horiz-adv-x="1153" glyph-name="seven" d="M1063 1301Q787 973 690 722T593 159V0H396V159Q396 489 518 754T869 1301H97V1456H1063V1301Z"/>
<glyph unicode="8" horiz-adv-x="1153" glyph-name="eight" d="M1010 1084Q1010 970 946 884T776 754Q900 711 975 617T1050 400Q1050 199 920 89T587 -21Q373 -21 238 89T102 400Q102 523 179 617T385 755Q273 797 208 884T143 1084Q143 1275 266 1376T585 1477Q771 1477 891 1376T1010 1084ZM854 404Q854 523 777 600T585 677Q461 677 380 600T299 404Q299 281 380 207T587 133Q701 133 778 208T854 404ZM813 1081Q813 1186 748 1254T585 1322Q478 1322 409 1257T340 1081Q340 970 410 901T587 832Q684 832 749 901T813 1081Z"/>
<glyph unicode="9" horiz-adv-x="1153" glyph-name="nine" d="M501 133Q643 133 731 231T818 509V633Q770 562 699 526T542 489Q332 489 213 619T93 978Q93 1198 220 1338T534 1477Q752 1477 884 1340T1016 953V511Q1016 260 872 120T501 -21Q424 -21 344 -5T193 42L223 192Q289 160 353 147T501 133ZM542 643Q645 643 716 690T818 810V982Q818 1145 745 1234T540 1322Q433 1322 362 1227T290 978Q290 828 356 736T542 643Z"/>
<glyph unicode=":" horiz-adv-x="517" glyph-name="colon" d="M358 0H161V202H358V0ZM358 876H161V1078H358V876Z"/>
<glyph unicode=";" horiz-adv-x="525" glyph-name="semicolon" d="M359 876H162V1078H359V876ZM366 48L216 -258H99L169 58V221H366V48Z"/>
<glyph unicode="&lt;" horiz-adv-x="1040" glyph-name="less" d="M328 579L243 561V555L328 536L887 308V107L71 486V635L887 1013V812L328 579Z"/>
<glyph unicode="=" horiz-adv-x="1153" glyph-name="equal" d="M986 823H152V987H986V823ZM986 407H152V571H986V407Z"/>
<glyph unicode="&gt;" horiz-adv-x="1072" glyph-name="greater" d="M136 798V993L992 615V466L136 87V283L734 521L819 538V544L734 564L136 798Z"/>
<glyph unicode="?" horiz-adv-x="974" glyph-name="question" d="M355 410Q356 555 380 611T506 759Q605 876 647 939T689 1091Q689 1197 633 1254T471 1311Q380 1311 316 1262T252 1116H64L61 1122Q58 1283 175 1380T471 1477Q668 1477 777 1377T886 1096Q886 967 816 860T629 641Q575 587 564 544T552 410H355ZM559 0H353V208H559V0Z"/>
<glyph unicode="@" horiz-adv-x="1833" glyph-name="at" d="M1732 502Q1723 288 1612 134T1280 -21Q1207 -21 1154 21T1078 138Q1028 58 956 19T788 -21Q663 -21 594 100T543 416Q566 675 681 832T960 988Q1065 988 1129 962T1268 882L1264 878H1270L1219 293Q1210 183 1241 142T1322 100Q1445 100 1519 214T1601 502Q1617 884 1457 1098T961 1311Q653 1311 466 1080T263 478Q245 102 413 -116T895 -335Q983 -335 1074 -313T1226 -257L1264 -364Q1197 -406 1094 -429T891 -453Q511 -453 304 -203T114 478Q133 901 363 1166T965 1431Q1344 1431 1547 1181T1732 502ZM720 416Q709 274 742 200T848 126Q912 126 965 151T1062 238Q1061 250 1062 264T1064 293L1111 831Q1085 843 1057 850T997 857Q872 857 806 748T720 416Z"/>
<glyph unicode="A" horiz-adv-x="1295" glyph-name="A" d="M922 375H374L244 0H43L568 1456H737L1251 0H1050L922 375ZM431 540H866L654 1165H648L431 540Z"/>
<glyph unicode="B" horiz-adv-x="1302" glyph-name="B" d="M170 0V1456H645Q873 1456 1002 1358T1131 1062Q1131 968 1073 894T919 780Q1062 760 1146 656T1229 411Q1229 211 1099 106T747 0H170ZM367 683V154H747Q882 154 957 221T1031 409Q1031 530 955 604T750 683H737H367ZM367 837H686Q796 837 865 898T934 1066Q934 1184 860 1243T645 1301H367V837Z"/>
<glyph unicode="C" horiz-adv-x="1297" glyph-name="C" d="M1209 466L1211 460Q1215 255 1067 117T676 -21Q429 -21 274 154T118 598V857Q118 1126 274 1302T676 1477Q923 1477 1069 1346T1211 997L1209 991H1020Q1020 1144 930 1233T676 1322Q511 1322 413 1189T315 859V598Q315 399 413 266T676 133Q840 133 930 222T1020 466H1209Z"/>
<glyph unicode="D" horiz-adv-x="1387" glyph-name="D" d="M170 0V1456H628Q913 1456 1087 1281T1260 827V628Q1260 349 1087 175T628 0H170ZM367 1301V154H628Q830 154 947 287T1063 628V829Q1063 1035 947 1168T628 1301H367Z"/>
<glyph unicode="E" horiz-adv-x="1130" glyph-name="E" d="M965 675H367V154H1067V0H170V1456H1056V1301H367V830H965V675Z"/>
<glyph unicode="F" horiz-adv-x="1130" glyph-name="F" d="M981 644H367V0H170V1456H1083V1301H367V799H981V644Z"/>
<glyph unicode="G" horiz-adv-x="1387" glyph-name="G" d="M1217 196Q1165 115 1037 47T703 -21Q451 -21 286 146T121 578V878Q121 1143 280 1310T690 1477Q933 1477 1074 1348T1211 1018L1209 1012H1020Q1020 1145 934 1234T690 1322Q523 1322 421 1197T319 880V578Q319 384 427 259T703 133Q832 133 908 167T1020 246V574H690V728H1217V196Z"/>
<glyph unicode="H" horiz-adv-x="1441" glyph-name="H" d="M1271 0H1074V643H367V0H170V1456H367V798H1074V1456H1271V0Z"/>
<glyph unicode="I" horiz-adv-x="579" glyph-name="I" d="M388 0H190V1456H388V0Z"/>
<glyph unicode="J" horiz-adv-x="1123" glyph-name="J" d="M759 1456H956V422Q956 219 833 99T512 -21Q311 -21 193 86T79 395L81 401H270Q270 265 333 199T512 133Q621 133 690 212T759 422V1456Z"/>
<glyph unicode="K" horiz-adv-x="1302" glyph-name="K" d="M495 658H367V0H170V1456H367V812H475L1015 1456H1237L1239 1451L649 762L1281 5L1279 0H1040L495 658Z"/>
<glyph unicode="L" horiz-adv-x="1126" glyph-name="L" d="M367 154H1077V0H170V1456H367V154Z"/>
<glyph unicode="M" horiz-adv-x="1779" glyph-name="M" d="M892 273H898L1363 1456H1608V0H1411V1091L1405 1092L964 0H827L373 1128L367 1127V0H170V1456H429L892 273Z"/>
<glyph unicode="N" horiz-adv-x="1442" glyph-name="N" d="M1271 0H1074L373 1112L367 1110V0H170V1456H367L1068 345L1074 347V1456H1271V0Z"/>
<glyph unicode="O" horiz-adv-x="1396" glyph-name="O" d="M1282 598Q1282 331 1117 155T687 -21Q432 -21 273 155T113 598V857Q113 1123 273 1300T687 1477Q951 1477 1117 1301T1282 857V598ZM1085 859Q1085 1059 977 1187T687 1315Q515 1315 413 1187T310 859V598Q310 396 413 268T687 140Q870 140 978 268T1085 598V859Z"/>
<glyph unicode="P" horiz-adv-x="1302" glyph-name="P" d="M367 584V0H170V1456H727Q960 1456 1090 1336T1219 1020Q1219 822 1090 703T727 584H367ZM367 738H727Q875 738 948 818T1021 1018Q1021 1139 948 1220T727 1301H367V738Z"/>
<glyph unicode="Q" horiz-adv-x="1427" glyph-name="Q" d="M1282 598Q1282 483 1249 381T1153 197L1370 -14L1235 -143L1013 70Q943 25 861 2T687 -21Q432 -21 273 155T113 598V857Q113 1123 273 1300T687 1477Q951 1477 1117 1301T1282 857V598ZM1085 859Q1085 1059 977 1187T687 1315Q515 1315 413 1187T310 859V598Q310 396 413 268T687 140Q870 140 978 268T1085 598V859Z"/>
<glyph unicode="R" horiz-adv-x="1303" glyph-name="R" d="M367 631V0H170V1455H668Q907 1455 1033 1349T1159 1041Q1159 929 1101 846T930 714Q1050 675 1103 588T1155 371V234Q1155 166 1170 112T1222 24V0H1019Q980 34 969 100T958 236V369Q958 487 889 559T704 631H367ZM367 786H648Q815 786 889 850T962 1043Q962 1166 891 1234T668 1301H367V786Z"/>
<glyph unicode="S" horiz-adv-x="1252" glyph-name="S" d="M946 367Q946 466 875 533T625 647Q403 702 279 809T154 1078Q154 1249 288 1363T636 1477Q866 1477 1003 1347T1135 1042L1132 1036H944Q944 1160 858 1241T636 1322Q498 1322 425 1255T351 1081Q351 986 432 923T693 811Q913 754 1028 643T1143 369Q1143 193 1005 86T643 -21Q432 -21 271 97T114 413L116 419H304Q304 282 408 208T643 133Q783 133 865 196T946 367Z"/>
<glyph unicode="T" horiz-adv-x="1225" glyph-name="T" d="M1188 1301H708V0H511V1301H37V1456H1188V1301Z"/>
<glyph unicode="U" horiz-adv-x="1386" glyph-name="U" d="M1244 1456V489Q1244 249 1088 114T686 -21Q449 -21 298 115T147 489V1456H344V489Q344 322 440 228T686 133Q846 133 947 228T1047 489V1456H1244Z"/>
<glyph unicode="V" horiz-adv-x="1295" glyph-name="V" d="M612 382L645 261H651L684 382L1060 1456H1273L732 0H563L22 1456H236L612 382Z"/>
<glyph unicode="W" horiz-adv-x="1763" glyph-name="W" d="M462 505L487 314L493 313L527 505L785 1456H978L1238 505L1272 310H1278L1305 505L1513 1456H1727L1375 0H1199L908 1010L886 1141H880L859 1010L564 0H388L37 1456H250L462 505Z"/>
<glyph unicode="X" horiz-adv-x="1295" glyph-name="X" d="M650 888L990 1456H1228L766 734L1238 0H1003L654 578L304 0H66L538 734L76 1456H312L650 888Z"/>
<glyph unicode="Y" horiz-adv-x="1295" glyph-name="Y" d="M645 716L1025 1456H1250L739 512V0H543V527L40 1456H265L645 716Z"/>
<glyph unicode="Z" horiz-adv-x="1225" glyph-name="Z" d="M319 154H1133V0H97V146L875 1301H108V1456H1100V1315L319 154Z"/>
<glyph unicode="[" horiz-adv-x="552" glyph-name="bracketleft" d="M528 1509H340V-157H528V-312H143V1664H528V1509Z"/>
<glyph unicode="\" horiz-adv-x="846" glyph-name="backslash" d="M39 1456H225L833 -125H647L39 1456Z"/>
<glyph unicode="]" horiz-adv-x="552" glyph-name="bracketright" d="M11 1664H397V-312H11V-157H200V1509H11V1664Z"/>
<glyph unicode="^" horiz-adv-x="856" glyph-name="asciicircum" d="M244 729H61L360 1456H494L792 729H611L445 1148L429 1218H423L407 1148L244 729Z"/>
<glyph unicode="_" horiz-adv-x="931" glyph-name="underscore" d="M927 -154H4V0H927V-154Z"/>
<glyph unicode="`" horiz-adv-x="641" glyph-name="grave" d="M490 1252H332L82 1512L85 1518H315L490 1252Z"/>
<glyph unicode="a" horiz-adv-x="1126" glyph-name="a" d="M808 0Q798 49 793 87T786 162Q731 84 643 32T452 -21Q283 -21 195 66T106 304Q106 459 232 547T572 634H786V741Q786 836 728 892T564 947Q468 947 409 899T350 784L163 782L161 788Q154 906 272 1004T575 1102Q759 1102 871 1009T983 739V218Q983 160 989 106T1011 0H808ZM481 144Q588 144 674 199T786 325V501H565Q446 501 375 441T303 300Q303 228 348 186T481 144Z"/>
<glyph unicode="b" horiz-adv-x="1164" glyph-name="b" d="M1067 500Q1067 266 955 123T645 -21Q537 -21 458 22T326 147L294 0H143V1560H340V954Q391 1026 467 1064T643 1102Q843 1102 955 942T1067 521V500ZM870 521Q870 707 802 825T593 942Q502 942 440 898T340 778V309Q378 229 440 184T595 139Q734 139 802 238T870 500V521Z"/>
<glyph unicode="c" horiz-adv-x="1072" glyph-name="c" d="M573 133Q664 133 732 194T800 342H978L981 336Q985 196 861 88T573 -21Q345 -21 221 134T97 520V562Q97 791 222 947T573 1102Q754 1102 870 990T981 715L979 709H800Q800 808 736 878T573 947Q428 947 362 835T295 562V520Q295 357 361 245T573 133Z"/>
<glyph unicode="d" horiz-adv-x="1164" glyph-name="d" d="M98 521Q98 782 210 942T522 1102Q617 1102 691 1067T816 965V1560H1013V0H862L832 137Q779 59 701 19T520 -21Q322 -21 210 123T98 500V521ZM295 500Q295 336 362 238T570 139Q658 139 718 179T816 291V796Q778 863 718 903T572 942Q430 942 363 825T295 521V500Z"/>
<glyph unicode="e" horiz-adv-x="1072" glyph-name="e" d="M591 -21Q358 -21 228 128T97 520V564Q97 797 232 950T560 1102Q777 1102 886 967T994 608V504H302L299 499Q299 336 371 235T591 133Q691 133 767 162T896 240L973 112Q915 56 820 18T591 -21ZM560 947Q457 947 390 868T307 664L309 659H797V675Q797 793 739 870T560 947Z"/>
<glyph unicode="f" horiz-adv-x="674" glyph-name="f" d="M225 0V936H56V1082H225V1219Q225 1392 316 1487T568 1581Q602 1581 637 1576T713 1560L689 1410Q671 1414 646 1417T592 1420Q506 1420 464 1369T422 1219V1082H618V936H422V0H225Z"/>
<glyph unicode="g" horiz-adv-x="1164" glyph-name="g" d="M108 521Q108 782 220 942T531 1102Q634 1102 712 1061T843 941L867 1082H1024V-6Q1024 -214 903 -325T554 -437Q476 -437 386 -415T226 -357L256 -204Q313 -234 394 -252T552 -271Q696 -271 762 -205T827 -6V117Q774 49 700 14T529 -21Q331 -21 220 123T108 500V521ZM305 500Q305 337 372 238T579 139Q668 139 728 180T827 294V792Q789 861 728 902T581 942Q440 942 373 825T305 521V500Z"/>
<glyph unicode="h" horiz-adv-x="1164" glyph-name="h" d="M340 937Q396 1015 478 1059T658 1102Q831 1102 928 998T1024 678V0H827V680Q827 814 770 878T598 942Q510 942 445 908T340 811V0H143V1560H340V937Z"/>
<glyph unicode="i" horiz-adv-x="516" glyph-name="i" d="M356 0H159V1082H356V0ZM356 1359H159V1560H356V1359Z"/>
<glyph unicode="j" horiz-adv-x="530" glyph-name="j" d="M370 1082V-89Q370 -256 284 -346T45 -437Q14 -437 -11 -432T-66 -419L-52 -264Q-38 -269 -12 -272T31 -276Q96 -276 135 -232T173 -89V1082H370ZM364 1363H167V1560H364V1363Z"/>
<glyph unicode="k" horiz-adv-x="1050" glyph-name="k" d="M442 499H341V0H144V1560H341V656H440L765 1082H1001L608 583L1035 0H802L442 499Z"/>
<glyph unicode="l" horiz-adv-x="516" glyph-name="l" d="M356 0H159V1560H356V0Z"/>
<glyph unicode="m" horiz-adv-x="1790" glyph-name="m" d="M319 1082L333 940Q386 1017 468 1060T657 1102Q765 1102 843 1052T959 902Q1011 995 1095 1049T1290 1102Q1455 1102 1551 989T1647 647V0H1450V649Q1450 809 1395 876T1231 942Q1130 942 1068 872T994 695V687V0H796V649Q796 801 740 872T577 942Q487 942 429 905T340 801V0H143V1082H319Z"/>
<glyph unicode="n" horiz-adv-x="1164" glyph-name="n" d="M319 1082L333 921Q387 1007 469 1055T654 1102Q829 1102 925 1000T1021 683V0H824V679Q824 822 768 882T595 942Q504 942 441 906T340 803V0H143V1082H319Z"/>
<glyph unicode="o" horiz-adv-x="1164" glyph-name="o" d="M97 551Q97 791 227 947T580 1102Q805 1102 936 947T1066 551V529Q1066 287 936 133T582 -21Q358 -21 228 134T97 529V551ZM294 529Q294 357 367 245T582 133Q723 133 796 245T869 529V551Q869 721 796 834T580 947Q439 947 367 834T294 551V529Z"/>
<glyph unicode="p" horiz-adv-x="1164" glyph-name="p" d="M1065 500Q1065 266 953 123T644 -21Q544 -21 469 13T340 113V-416H143V1082H294L325 942Q378 1020 457 1061T641 1102Q842 1102 954 943T1065 521V500ZM868 521Q868 705 796 824T582 942Q497 942 437 904T340 798V275Q377 208 437 171T584 133Q724 133 796 236T868 500V521Z"/>
<glyph unicode="q" horiz-adv-x="1164" glyph-name="q" d="M98 521Q98 782 210 942T522 1102Q620 1102 695 1065T823 956L851 1082H1002V-416H805V102Q753 41 682 10T520 -21Q322 -21 210 123T98 500V521ZM295 500Q295 336 363 235T570 133Q651 133 709 169T805 270V816Q766 877 709 912T572 947Q431 947 363 828T295 521V500Z"/>
<glyph unicode="r" horiz-adv-x="717" glyph-name="r" d="M655 908L554 914Q476 914 423 877T340 773V0H143V1082H319L338 924Q384 1008 452 1055T607 1102Q629 1102 649 1099T682 1091L655 908Z"/>
<glyph unicode="s" horiz-adv-x="1071" glyph-name="s" d="M772 291Q772 356 723 397T535 469Q344 510 242 584T139 782Q139 914 252 1008T543 1102Q727 1102 841 1002T950 769L948 763H760Q760 833 699 890T543 947Q439 947 388 900T336 788Q336 724 381 689T564 625Q763 583 866 506T969 305Q969 161 853 70T548 -21Q341 -21 222 84T109 329L111 335H299Q304 230 377 182T548 133Q653 133 713 178T772 291Z"/>
<glyph unicode="t" horiz-adv-x="690" glyph-name="t" d="M417 1343V1082H622V936H417V279Q417 203 449 172T532 141Q549 141 570 146T605 155L632 20Q610 2 567 -9T482 -21Q362 -21 291 52T220 279V936H48V1082H220V1343H417Z"/>
<glyph unicode="u" horiz-adv-x="1164" glyph-name="u" d="M830 160Q779 73 699 26T514 -21Q337 -21 238 92T139 444V1082H336V442Q336 269 387 204T546 139Q651 139 720 182T823 302V1082H1020V0H843L830 160Z"/>
<glyph unicode="v" horiz-adv-x="1030" glyph-name="v" d="M504 319L521 243H527L546 319L795 1082H996L598 0H449L46 1082H248L504 319Z"/>
<glyph unicode="w" horiz-adv-x="1550" glyph-name="w" d="M420 394L445 255H451L477 394L693 1082H851L1068 394L1096 239H1102L1134 394L1294 1082H1500L1186 0H1027L813 659L772 831H766L728 659L518 0H359L45 1082H250L420 394Z"/>
<glyph unicode="x" horiz-adv-x="1030" glyph-name="x" d="M510 683L740 1082H970L619 547L980 0H754L514 409L274 0H46L407 547L56 1082H283L510 683Z"/>
<glyph unicode="y" horiz-adv-x="1030" glyph-name="y" d="M474 401L509 265H515L781 1082H1000L545 -166Q504 -275 428 -356T221 -437Q197 -437 160 -431T103 -421L123 -266Q117 -265 159 -268T211 -271Q274 -271 314 -215T381 -91L428 22L26 1082H246L474 401Z"/>
<glyph unicode="z" horiz-adv-x="1030" glyph-name="z" d="M329 154H954V0H94V138L679 926H101V1082H920V948L329 154Z"/>
<glyph unicode="{" horiz-adv-x="696" glyph-name="braceleft" d="M631 -364Q436 -309 354 -189T272 101V306Q272 418 221 481T63 543V690Q169 690 221 752T272 926V1132Q272 1303 354 1423T631 1597L671 1480Q561 1445 515 1355T469 1132V926Q469 821 427 741T299 616Q384 570 427 490T469 306V101Q469 -31 515 -120T671 -246L631 -364Z"/>
<glyph unicode="|" horiz-adv-x="507" glyph-name="bar" d="M342 -270H145V1456H342V-270Z"/>
<glyph unicode="}" horiz-adv-x="696" glyph-name="braceright" d="M21 -246Q130 -210 177 -120T224 101V306Q224 413 269 493T408 616Q314 657 269 737T224 926V1132Q224 1264 177 1355T21 1480L62 1597Q256 1542 339 1423T421 1132V926Q421 813 472 752T630 690V543Q522 543 472 481T421 306V101Q421 -69 339 -189T62 -364L21 -246Z"/>
<glyph unicode="~" horiz-adv-x="1391" glyph-name="asciitilde" d="M1264 740Q1264 603 1177 502T960 401Q870 401 797 434T638 541Q579 589 530 613T431 637Q364 637 317 584T269 456L128 474Q128 610 214 707T431 803Q519 803 594 769T754 664Q812 613 860 590T960 567Q1026 567 1075 624T1123 758L1264 740Z"/>
<glyph unicode="&#x7f;" horiz-adv-x="509" glyph-name="NULL"/>
<glyph unicode="&#x80;" horiz-adv-x="509" glyph-name="NULL"/>
<glyph unicode="&#x81;" horiz-adv-x="509" glyph-name="NULL"/>
<glyph unicode="&#x82;" horiz-adv-x="509" glyph-name="NULL"/>
<glyph unicode="&#x83;" horiz-adv-x="509" glyph-name="NULL"/>
<glyph unicode="&#x84;" horiz-adv-x="509" glyph-name="NULL"/>
<glyph unicode="&#x85;" horiz-adv-x="509" glyph-name="NULL"/>
<glyph unicode="&#x86;" horiz-adv-x="509" glyph-name="NULL"/>
<glyph unicode="&#x87;" horiz-adv-x="509" glyph-name="NULL"/>
<glyph unicode="&#x88;" horiz-adv-x="509" glyph-name="NULL"/>
<glyph unicode="&#x89;" horiz-adv-x="509" glyph-name="NULL"/>
<glyph unicode="&#x8a;" horiz-adv-x="509" glyph-name="NULL"/>
<glyph unicode="&#x8b;" horiz-adv-x="509" glyph-name="NULL"/>
<glyph unicode="&#x8c;" horiz-adv-x="509" glyph-name="NULL"/>
<glyph unicode="&#x8d;" horiz-adv-x="509" glyph-name="NULL"/>
<glyph unicode="&#x8e;" horiz-adv-x="509" glyph-name="NULL"/>
<glyph unicode="&#x8f;" horiz-adv-x="509" glyph-name="NULL"/>
<glyph unicode="&#x90;" horiz-adv-x="509" glyph-name="NULL"/>
<glyph unicode="&#x91;" horiz-adv-x="509" glyph-name="NULL"/>
<glyph unicode="&#x92;" horiz-adv-x="509" glyph-name="NULL"/>
<glyph unicode="&#x93;" horiz-adv-x="509" glyph-name="NULL"/>
<glyph unicode="&#x94;" horiz-adv-x="509" glyph-name="NULL"/>
<glyph unicode="&#x95;" horiz-adv-x="509" glyph-name="NULL"/>
<glyph unicode="&#x96;" horiz-adv-x="509" glyph-name="NULL"/>
<glyph unicode="&#x97;" horiz-adv-x="509" glyph-name="NULL"/>
<glyph unicode="&#x98;" horiz-adv-x="509" glyph-name="NULL"/>
<glyph unicode="&#x99;" horiz-adv-x="509" glyph-name="NULL"/>
<glyph unicode="&#x9a;" horiz-adv-x="509" glyph-name="NULL"/>
<glyph unicode="&#x9b;" horiz-adv-x="509" glyph-name="NULL"/>
<glyph unicode="&#x9c;" horiz-adv-x="509" glyph-name="NULL"/>
<glyph unicode="&#x9d;" horiz-adv-x="509" glyph-name="NULL"/>
<glyph unicode="&#x9e;" horiz-adv-x="509" glyph-name="NULL"/>
<glyph unicode="&#x9f;" horiz-adv-x="509" glyph-name="NULL"/>
<glyph unicode="&#xa0;" horiz-adv-x="509" glyph-name="nbspace"/>
<glyph unicode="&#xa1;" horiz-adv-x="507" glyph-name="exclamdown" d="M341 -374H144V604H341V-374ZM341 876H144V1082H341V876Z"/>
<glyph unicode="&#xa2;" horiz-adv-x="1122" glyph-name="cent" d="M573 133Q664 133 732 194T800 342H980L982 337Q985 221 896 122T676 -8V-245H478V-12Q294 19 196 167T97 520V562Q97 764 196 912T478 1093V1318H676V1091Q816 1061 901 957T983 714L980 709H800Q800 808 736 878T573 947Q428 947 362 835T295 562V520Q295 357 361 245T573 133Z"/>
<glyph unicode="&#xa3;" horiz-adv-x="1194" glyph-name="sterling" d="M430 615L436 466Q436 376 421 295T376 154H1111L1110 0H134V154H144Q192 167 216 265T240 466L234 615H70V770H228L218 1040Q218 1244 330 1361T630 1477Q830 1477 940 1373T1046 1096L1044 1090H854Q854 1208 791 1265T630 1322Q531 1322 473 1248T415 1040L425 770H843V615H430Z"/>
<glyph unicode="&#xa4;" horiz-adv-x="1456" glyph-name="currency" d="M1097 108Q1020 46 928 13T734 -20Q633 -20 541 13T373 106L243 -26L104 112L242 252Q192 328 166 419T139 608Q139 710 168 804T250 976L104 1125L243 1264L386 1118Q460 1173 549 1204T734 1234Q831 1234 920 1203T1084 1116L1230 1265L1370 1125L1220 972Q1272 894 1301 802T1329 608Q1329 510 1303 421T1228 255L1370 112L1230 -27L1097 108ZM321 608Q321 420 442 288T734 155Q904 155 1025 288T1145 608Q1145 794 1025 926T734 1058Q562 1058 442 926T321 608Z"/>
<glyph unicode="&#xa5;" horiz-adv-x="1243" glyph-name="yen" d="M615 793L975 1456H1199L781 738H1093V615H710V448H1093V326H710V0H513V326H138V448H513V615H138V738H449L30 1456H256L615 793Z"/>
<glyph unicode="&#xa6;" horiz-adv-x="499" glyph-name="brokenbar" d="M145 -270V522H342V-270H145ZM342 698H145V1456H342V698Z"/>
<glyph unicode="&#xa7;" horiz-adv-x="1259" glyph-name="section" d="M1148 431Q1148 337 1100 267T965 157Q1034 106 1069 38T1104 -128Q1104 -300 971 -397T613 -495Q392 -495 241 -392T95 -70L97 -64L285 -62Q285 -205 382 -272T613 -340Q750 -340 829 -280T907 -130Q907 -39 835 12T559 125Q320 188 207 281T94 551Q94 642 141 713T275 824Q207 874 173 944T139 1110Q139 1276 273 1377T631 1477Q864 1477 994 1366T1120 1052L1117 1046H929Q929 1164 850 1243T631 1322Q486 1322 411 1263T336 1112Q336 1013 403 964T681 856Q925 787 1037 697T1148 431ZM603 689Q556 701 515 714T437 741Q364 722 328 672T291 553Q291 453 359 402T637 291Q693 274 730 263T800 240Q872 260 912 310T952 428Q952 519 879 573T603 689Z"/>
<glyph unicode="&#xa8;" horiz-adv-x="1021" glyph-name="dieresis" d="M859 1256H640V1456H859V1256ZM389 1256H170V1456H389V1256Z"/>
<glyph unicode="&#xa9;" horiz-adv-x="1604" glyph-name="copyright" d="M1111 596L1113 590Q1117 439 1029 361T784 282Q624 282 530 389T436 669V788Q436 961 530 1068T784 1175Q941 1175 1030 1096T1114 868L1112 862H966Q966 957 921 1001T784 1044Q690 1044 639 974T588 789V669Q588 552 639 482T784 412Q875 412 920 455T965 596H1111ZM209 729Q209 464 381 282T798 100Q1043 100 1215 282T1387 729Q1387 992 1215 1173T798 1354Q552 1354 381 1173T209 729ZM88 729Q88 1044 295 1260T798 1476Q1093 1476 1300 1260T1507 729Q1507 413 1300 196T798 -21Q502 -21 295 196T88 729Z"/>
<glyph unicode="&#xaa;" horiz-adv-x="917" glyph-name="ordfeminine" d="M613 706Q605 727 600 751T592 801Q559 754 503 723T369 692Q250 692 185 753T120 920Q120 1030 205 1090T450 1150H589V1202Q589 1265 559 1299T471 1333Q404 1333 368 1306T331 1230L169 1243L168 1249Q162 1347 247 1412T471 1477Q605 1477 683 1406T761 1201V887Q761 837 767 793T787 706H613ZM411 831Q462 831 517 861T589 926V1036H451Q376 1036 335 1003T293 924Q293 879 322 855T411 831Z"/>
<glyph unicode="&#xab;" horiz-adv-x="966" glyph-name="guillemotleft" d="M65821 66051L66076 65653H65928L65633 66042V66061L65928 66450H66076L65821 66051ZM620 66051L875 65653H727L432 66042V66061L727 66450H875L620 66051Z"/>
<glyph unicode="&#xac;" horiz-adv-x="1137" glyph-name="logicalnot" d="M962 375H764V637H127V802H962V375Z"/>
<glyph unicode="&#xad;" horiz-adv-x="923" glyph-name="" d="M757 538H167V692H757V538Z"/>
<glyph unicode="&#xae;" horiz-adv-x="1604" glyph-name="registered" d="M88 729Q88 1044 295 1260T798 1476Q1093 1476 1300 1260T1507 729Q1507 413 1300 196T798 -21Q502 -21 295 196T88 729ZM209 729Q209 463 381 282T798 100Q1042 100 1214 282T1386 729Q1386 993 1215 1174T798 1354Q552 1354 381 1174T209 729ZM653 654V316H504V1166H784Q936 1166 1023 1101T1109 909Q1109 847 1076 800T980 722Q1046 696 1076 643T1105 515V459Q1105 418 1109 386T1122 332V316H969Q960 337 958 378T956 460V514Q956 586 923 620T812 654H653ZM653 784H805Q870 785 916 817T961 904Q961 977 922 1007T784 1036H653V784Z"/>
<glyph unicode="&#xaf;" horiz-adv-x="950" glyph-name="" d="M844 1310H123V1456H844V1310Z"/>
<glyph unicode="&#xb0;" horiz-adv-x="763" glyph-name="degree" d="M128 1216Q128 1322 204 1400T385 1477Q488 1477 563 1400T637 1216Q637 1108 563 1034T385 959Q279 959 204 1034T128 1216ZM259 1216Q259 1161 296 1125T385 1089Q437 1089 473 1125T508 1216Q508 1271 472 1309T385 1346Q332 1346 296 1309T259 1216Z"/>
<glyph unicode="&#xb1;" horiz-adv-x="1097" glyph-name="plusminus" d="M657 856H1015V702H657V289H480V702H99V856H480V1267H657V856ZM971 4H136V159H971V4Z"/>
<glyph unicode="&#xb2;" horiz-adv-x="868" glyph-name="twosuperior" d="M714 667H122V797L424 1059Q493 1119 515 1157T537 1236Q537 1286 509 1317T422 1348Q355 1348 319 1316T282 1234H121L119 1240Q113 1339 197 1409T422 1479Q557 1479 633 1415T709 1235Q709 1155 665 1099T504 938L351 803L353 797H714V667Z"/>
<glyph unicode="&#xb3;" horiz-adv-x="876" glyph-name="threesuperior" d="M424 1137Q491 1137 524 1166T556 1246Q556 1289 520 1318T414 1347Q358 1347 324 1323T289 1259H127L125 1265Q119 1359 204 1419T414 1478Q559 1478 643 1419T727 1249Q727 1194 692 1149T594 1077Q664 1054 702 1006T740 890Q740 779 650 717T414 655Q287 655 197 713T112 882L113 888H276Q276 842 314 814T414 785Q486 785 528 815T570 892Q570 954 534 983T424 1011H292V1137H424Z"/>
<glyph unicode="&#xb4;" horiz-adv-x="654" glyph-name="acute" d="M316 1518H546L548 1512L279 1252H131L316 1518Z"/>
<glyph unicode="&#xb5;" horiz-adv-x="1164" glyph-name="mu" d="M349 1082V440Q351 262 407 198T562 133Q660 133 721 169T813 275V1082H1010V0H833L824 108Q780 45 717 12T570 -21Q498 -21 444 -4T349 47V-416H153V1082H349Z"/>
<glyph unicode="&#xb6;" horiz-adv-x="1006" glyph-name="paragraph" d="M639 0V520H555Q322 520 193 650T63 988Q63 1195 193 1326T555 1456H836V0H639Z"/>
<glyph unicode="&#xb7;" horiz-adv-x="540" glyph-name="" d="M359 624H161V836H359V624Z"/>
<glyph unicode="&#xb8;" horiz-adv-x="509" glyph-name="cedilla" d="M292 0L280 -52Q345 -63 388 -104T431 -225Q431 -321 352 -378T126 -435L119 -326Q191 -326 235 -301T279 -228Q279 -180 243 -161T120 -135L152 0H292Z"/>
<glyph unicode="&#xb9;" horiz-adv-x="557" glyph-name="onesuperior" d="M396 665H222V1320H95V1454L396 1477V665Z"/>
<glyph unicode="&#xba;" horiz-adv-x="933" glyph-name="ordmasculine" d="M120 1142Q120 1290 214 1384T465 1477Q623 1477 717 1384T811 1142V1025Q811 876 718 784T467 691Q309 691 215 784T120 1025V1142ZM293 1025Q293 937 337 885T467 832Q550 832 595 885T639 1025V1142Q639 1226 594 1280T465 1333Q381 1333 337 1280T293 1142V1025Z"/>
<glyph unicode="&#xbb;" horiz-adv-x="966" glyph-name="guillemotright" d="M347 550L116 930H264L542 573H547L548 564L553 559L551 550L553 541L548 535L547 528H543L264 170H116L347 550ZM693 550L462 930H610L888 573H893L894 564L899 559L897 550L899 541L894 535L893 528H889L610 170H462L693 550Z"/>
<glyph unicode="&#xbc;" horiz-adv-x="1595" glyph-name="onequarter" d="M485 664H311V1319H184V1453L485 1476V664ZM448 118L339 185L1050 1323L1159 1256L448 118ZM1380 282H1506V152H1380V0H1210V152H793L785 254L1207 801H1380V282ZM967 282H1210V592L1204 593L1191 571L967 282Z"/>
<glyph unicode="&#xbd;" horiz-adv-x="1708" glyph-name="onehalf" d="M461 118L352 185L1063 1323L1172 1256L461 118ZM485 664H311V1319H184V1453L485 1476V664ZM1525 0H933V130L1235 392Q1304 452 1326 490T1348 569Q1348 619 1320 650T1233 681Q1166 681 1130 649T1093 567H932L930 573Q924 672 1008 742T1233 812Q1368 812 1444 748T1520 568Q1520 488 1476 432T1315 271L1162 136L1164 130H1525V0Z"/>
<glyph unicode="&#xbe;" horiz-adv-x="1781" glyph-name="threequarters" d="M631 118L522 185L1233 1323L1342 1256L631 118ZM1569 282H1695V152H1569V0H1399V152H982L974 254L1396 801H1569V282ZM1156 282H1399V592L1393 593L1380 571L1156 282ZM440 1138Q507 1138 540 1167T572 1247Q572 1290 536 1319T430 1348Q374 1348 340 1324T305 1260H143L141 1266Q135 1360 220 1420T430 1479Q575 1479 659 1420T743 1250Q743 1195 708 1150T610 1078Q680 1055 718 1007T756 891Q756 780 666 718T430 656Q303 656 213 714T128 883L129 889H292Q292 843 330 815T430 786Q502 786 544 816T586 893Q586 955 550 984T440 1012H308V1138H440Z"/>
<glyph unicode="&#xbf;" horiz-adv-x="1013" glyph-name="questiondown" d="M645 672Q643 526 619 470T494 323Q394 205 353 142T311 -8Q311 -114 367 -171T529 -228Q619 -228 684 -178T748 -33H936L939 -39Q941 -200 825 -297T529 -394Q331 -394 223 -293T114 -13Q114 114 184 221T371 441Q424 494 436 537T448 672H645ZM441 1083H647V874H441V1083Z"/>
<glyph unicode="&#xc0;" horiz-adv-x="1295" glyph-name="Agrave" d="M922 375H374L244 0H43L568 1456H737L1251 0H1050L922 375ZM431 540H866L654 1165H648L431 540ZM731 1601H573L323 1861L326 1867H556L731 1601Z"/>
<glyph unicode="&#xc1;" horiz-adv-x="1295" glyph-name="Aacute" d="M922 375H374L244 0H43L568 1456H737L1251 0H1050L922 375ZM431 540H866L654 1165H648L431 540ZM743 1863H973L975 1857L706 1597H558L743 1863Z"/>
<glyph unicode="&#xc2;" horiz-adv-x="1295" glyph-name="Acircumflex" d="M922 375H374L244 0H43L568 1456H737L1251 0H1050L922 375ZM431 540H866L654 1165H648L431 540ZM956 1626V1601H795L648 1749L502 1601H342V1627L588 1864H708L956 1626Z"/>
<glyph unicode="&#xc3;" horiz-adv-x="1295" glyph-name="Atilde" d="M922 375H374L244 0H43L568 1456H737L1251 0H1050L922 375ZM431 540H866L654 1165H648L431 540ZM995 1844Q995 1750 936 1685T786 1620Q715 1620 638 1667T510 1713Q467 1713 438 1681T409 1602L301 1628Q301 1721 360 1790T510 1858Q566 1858 650 1811T786 1764Q827 1764 857 1797T887 1876L995 1844Z"/>
<glyph unicode="&#xc4;" horiz-adv-x="1295" glyph-name="Adieresis" d="M922 375H374L244 0H43L568 1456H737L1251 0H1050L922 375ZM431 540H866L654 1165H648L431 540ZM993 1605H774V1805H993V1605ZM523 1605H304V1805H523V1605Z"/>
<glyph unicode="&#xc5;" horiz-adv-x="1295" glyph-name="Aring" d="M922 375H374L244 0H43L568 1456H737L1251 0H1050L922 375ZM431 540H866L654 1165H648L431 540ZM471 1734Q471 1806 523 1855T647 1903Q719 1903 770 1855T820 1734Q820 1661 770 1616T647 1570Q573 1570 522 1616T471 1734ZM571 1734Q571 1703 594 1682T647 1660Q677 1660 699 1681T720 1734Q720 1766 699 1789T647 1811Q615 1811 593 1789T571 1734Z"/>
<glyph unicode="&#xc6;" horiz-adv-x="1999" glyph-name="AE" d="M1924 0H1029L1014 350H457L256 0H14L895 1456H1862V1301H1171L1191 835H1781V680H1197L1219 154H1924V0ZM560 529H1007L976 1239L971 1241L560 529Z"/>
<glyph unicode="&#xc7;" horiz-adv-x="1297" glyph-name="Ccedilla" d="M1209 466L1211 460Q1215 255 1067 117T676 -21Q429 -21 274 154T118 598V857Q118 1126 274 1302T676 1477Q923 1477 1069 1346T1211 997L1209 991H1020Q1020 1144 930 1233T676 1322Q511 1322 413 1189T315 859V598Q315 399 413 266T676 133Q840 133 930 222T1020 466H1209ZM754 65527L742 65475Q807 65464 850 65423T893 65302Q893 65206 814 65149T588 65092L581 65201Q653 65201 697 65226T741 65299Q741 65347 705 65366T582 65392L614 65527H754Z"/>
<glyph unicode="&#xc8;" horiz-adv-x="1130" glyph-name="Egrave" d="M965 675H367V154H1067V0H170V1456H1056V1301H367V830H965V675ZM702 1601H544L294 1861L297 1867H527L702 1601Z"/>
<glyph unicode="&#xc9;" horiz-adv-x="1130" glyph-name="Eacute" d="M965 675H367V154H1067V0H170V1456H1056V1301H367V830H965V675ZM714 1863H944L946 1857L677 1597H529L714 1863Z"/>
<glyph unicode="&#xca;" horiz-adv-x="1130" glyph-name="Ecircumflex" d="M965 675H367V154H1067V0H170V1456H1056V1301H367V830H965V675ZM927 1626V1601H766L619 1749L473 1601H313V1627L559 1864H679L927 1626Z"/>
<glyph unicode="&#xcb;" horiz-adv-x="1130" glyph-name="Edieresis" d="M965 675H367V154H1067V0H170V1456H1056V1301H367V830H965V675ZM964 1605H745V1805H964V1605ZM494 1605H275V1805H494V1605Z"/>
<glyph unicode="&#xcc;" horiz-adv-x="579" glyph-name="Igrave" d="M388 0H190V1456H388V0ZM65909 1601H65751L65501 1861L65504 1867H65734L65909 1601Z"/>
<glyph unicode="&#xcd;" horiz-adv-x="579" glyph-name="Iacute" d="M388 0H190V1456H388V0ZM384 1863H614L616 1857L347 1597H199L384 1863Z"/>
<glyph unicode="&#xce;" horiz-adv-x="579" glyph-name="Icircumflex" d="M388 0H190V1456H388V0ZM66134 1626V1601H65973L65826 1749L65680 1601H65520V1627L65766 1864H65886L66134 1626Z"/>
<glyph unicode="&#xcf;" horiz-adv-x="579" glyph-name="Idieresis" d="M388 0H190V1456H388V0ZM66171 1605H65952V1805H66171V1605ZM65701 1605H65482V1805H65701V1605Z"/>
<glyph unicode="&#xd0;" horiz-adv-x="1387" glyph-name="Eth" d="M170 0V663H2V818H170V1456H628Q913 1456 1087 1281T1260 827V628Q1260 349 1087 175T628 0H170ZM643 663H367V154H628Q830 154 947 287T1063 628V829Q1063 1035 947 1168T628 1301H367V818H643V663Z"/>
<glyph unicode="&#xd1;" horiz-adv-x="1442" glyph-name="Ntilde" d="M1271 0H1074L373 1112L367 1110V0H170V1456H367L1068 345L1074 347V1456H1271V0ZM1066 1844Q1066 1750 1007 1685T857 1620Q786 1620 709 1667T581 1713Q538 1713 509 1681T480 1602L372 1628Q372 1721 431 1790T581 1858Q637 1858 721 1811T857 1764Q898 1764 928 1797T958 1876L1066 1844Z"/>
<glyph unicode="&#xd2;" horiz-adv-x="1396" glyph-name="Ograve" d="M1282 598Q1282 331 1117 155T687 -21Q432 -21 273 155T113 598V857Q113 1123 273 1300T687 1477Q951 1477 1117 1301T1282 857V598ZM1085 859Q1085 1059 977 1187T687 1315Q515 1315 413 1187T310 859V598Q310 396 413 268T687 140Q870 140 978 268T1085 598V859ZM781 1622H623L373 1882L376 1888H606L781 1622Z"/>
<glyph unicode="&#xd3;" horiz-adv-x="1396" glyph-name="Oacute" d="M1282 598Q1282 331 1117 155T687 -21Q432 -21 273 155T113 598V857Q113 1123 273 1300T687 1477Q951 1477 1117 1301T1282 857V598ZM1085 859Q1085 1059 977 1187T687 1315Q515 1315 413 1187T310 859V598Q310 396 413 268T687 140Q870 140 978 268T1085 598V859ZM793 1884H1023L1025 1878L756 1618H608L793 1884Z"/>
<glyph unicode="&#xd4;" horiz-adv-x="1396" glyph-name="Ocircumflex" d="M1282 598Q1282 331 1117 155T687 -21Q432 -21 273 155T113 598V857Q113 1123 273 1300T687 1477Q951 1477 1117 1301T1282 857V598ZM1085 859Q1085 1059 977 1187T687 1315Q515 1315 413 1187T310 859V598Q310 396 413 268T687 140Q870 140 978 268T1085 598V859ZM1006 1647V1622H845L698 1770L552 1622H392V1648L638 1885H758L1006 1647Z"/>
<glyph unicode="&#xd5;" horiz-adv-x="1396" glyph-name="Otilde" d="M1282 598Q1282 331 1117 155T687 -21Q432 -21 273 155T113 598V857Q113 1123 273 1300T687 1477Q951 1477 1117 1301T1282 857V598ZM1085 859Q1085 1059 977 1187T687 1315Q515 1315 413 1187T310 859V598Q310 396 413 268T687 140Q870 140 978 268T1085 598V859ZM1045 1865Q1045 1771 986 1706T836 1641Q765 1641 688 1688T560 1734Q517 1734 488 1702T459 1623L351 1649Q351 1742 410 1811T560 1879Q616 1879 700 1832T836 1785Q877 1785 907 1818T937 1897L1045 1865Z"/>
<glyph unicode="&#xd6;" horiz-adv-x="1396" glyph-name="Odieresis" d="M1282 598Q1282 331 1117 155T687 -21Q432 -21 273 155T113 598V857Q113 1123 273 1300T687 1477Q951 1477 1117 1301T1282 857V598ZM1085 859Q1085 1059 977 1187T687 1315Q515 1315 413 1187T310 859V598Q310 396 413 268T687 140Q870 140 978 268T1085 598V859ZM1043 1626H824V1826H1043V1626ZM573 1626H354V1826H573V1626Z"/>
<glyph unicode="&#xd7;" horiz-adv-x="1096" glyph-name="multiply" d="M88 351L415 685L88 1019L214 1145L540 812L867 1145L993 1019L665 685L993 351L867 225L540 557L214 225L88 351Z"/>
<glyph unicode="&#xd8;" horiz-adv-x="1396" glyph-name="Oslash" d="M1282 598Q1282 331 1117 155T687 -21Q602 -21 527 0T387 60L296 -94H147L286 140Q202 224 158 342T113 598V857Q113 1123 273 1300T687 1477Q781 1477 866 1452T1022 1380L1103 1517H1252L1120 1296Q1197 1212 1240 1099T1282 857V598ZM310 598Q310 513 329 440T383 315L389 314L933 1230Q883 1271 821 1293T687 1315Q515 1315 413 1187T310 859V598ZM1085 859Q1085 934 1069 1001T1022 1118L1016 1119L475 208Q519 174 572 157T687 140Q870 140 978 268T1085 598V859Z"/>
<glyph unicode="&#xd9;" horiz-adv-x="1386" glyph-name="Ugrave" d="M1244 1456V489Q1244 249 1088 114T686 -21Q449 -21 298 115T147 489V1456H344V489Q344 322 440 228T686 133Q846 133 947 228T1047 489V1456H1244ZM780 1601H622L372 1861L375 1867H605L780 1601Z"/>
<glyph unicode="&#xda;" horiz-adv-x="1386" glyph-name="Uacute" d="M1244 1456V489Q1244 249 1088 114T686 -21Q449 -21 298 115T147 489V1456H344V489Q344 322 440 228T686 133Q846 133 947 228T1047 489V1456H1244ZM792 1863H1022L1024 1857L755 1597H607L792 1863Z"/>
<glyph unicode="&#xdb;" horiz-adv-x="1386" glyph-name="Ucircumflex" d="M1244 1456V489Q1244 249 1088 114T686 -21Q449 -21 298 115T147 489V1456H344V489Q344 322 440 228T686 133Q846 133 947 228T1047 489V1456H1244ZM1005 1626V1601H844L697 1749L551 1601H391V1627L637 1864H757L1005 1626Z"/>
<glyph unicode="&#xdc;" horiz-adv-x="1386" glyph-name="Udieresis" d="M1244 1456V489Q1244 249 1088 114T686 -21Q449 -21 298 115T147 489V1456H344V489Q344 322 440 228T686 133Q846 133 947 228T1047 489V1456H1244ZM1042 1605H823V1805H1042V1605ZM572 1605H353V1805H572V1605Z"/>
<glyph unicode="&#xdd;" horiz-adv-x="1295" glyph-name="Yacute" d="M645 716L1025 1456H1250L739 512V0H543V527L40 1456H265L645 716ZM741 1862H971L973 1856L704 1596H556L741 1862Z"/>
<glyph unicode="&#xde;" horiz-adv-x="1209" glyph-name="Thorn" d="M360 1456V1163H629Q861 1163 991 1045T1121 738Q1121 548 991 431T629 313H360V0H163V1456H360ZM360 1009V467H629Q776 467 850 545T923 736Q923 850 850 930T629 1009H360Z"/>
<glyph unicode="&#xdf;" horiz-adv-x="1221" glyph-name="germandbls" d="M333 0H137V1082Q137 1305 255 1430T555 1555Q716 1555 817 1469T918 1216Q918 1098 854 988T789 821Q789 739 963 597T1136 316Q1136 149 1032 64T749 -21Q665 -21 577 0T451 50L495 209Q538 181 603 157T729 133Q837 133 888 181T939 306Q939 390 766 534T592 823Q592 903 663 1014T733 1200Q733 1293 682 1347T565 1401Q461 1401 397 1318T333 1082V0Z"/>
<glyph unicode="&#xe0;" horiz-adv-x="1126" glyph-name="agrave" d="M808 0Q798 49 793 87T786 162Q731 84 643 32T452 -21Q283 -21 195 66T106 304Q106 459 232 547T572 634H786V741Q786 836 728 892T564 947Q468 947 409 899T350 784L163 782L161 788Q154 906 272 1004T575 1102Q759 1102 871 1009T983 739V218Q983 160 989 106T1011 0H808ZM481 144Q588 144 674 199T786 325V501H565Q446 501 375 441T303 300Q303 228 348 186T481 144ZM638 1279H480L230 1539L233 1545H463L638 1279Z"/>
<glyph unicode="&#xe1;" horiz-adv-x="1126" glyph-name="aacute" d="M808 0Q798 49 793 87T786 162Q731 84 643 32T452 -21Q283 -21 195 66T106 304Q106 459 232 547T572 634H786V741Q786 836 728 892T564 947Q468 947 409 899T350 784L163 782L161 788Q154 906 272 1004T575 1102Q759 1102 871 1009T983 739V218Q983 160 989 106T1011 0H808ZM481 144Q588 144 674 199T786 325V501H565Q446 501 375 441T303 300Q303 228 348 186T481 144ZM650 1541H880L882 1535L613 1275H465L650 1541Z"/>
<glyph unicode="&#xe2;" horiz-adv-x="1126" glyph-name="acircumflex" d="M808 0Q798 49 793 87T786 162Q731 84 643 32T452 -21Q283 -21 195 66T106 304Q106 459 232 547T572 634H786V741Q786 836 728 892T564 947Q468 947 409 899T350 784L163 782L161 788Q154 906 272 1004T575 1102Q759 1102 871 1009T983 739V218Q983 160 989 106T1011 0H808ZM481 144Q588 144 674 199T786 325V501H565Q446 501 375 441T303 300Q303 228 348 186T481 144ZM863 1304V1279H702L555 1427L409 1279H249V1305L495 1542H615L863 1304Z"/>
<glyph unicode="&#xe3;" horiz-adv-x="1126" glyph-name="atilde" d="M808 0Q798 49 793 87T786 162Q731 84 643 32T452 -21Q283 -21 195 66T106 304Q106 459 232 547T572 634H786V741Q786 836 728 892T564 947Q468 947 409 899T350 784L163 782L161 788Q154 906 272 1004T575 1102Q759 1102 871 1009T983 739V218Q983 160 989 106T1011 0H808ZM481 144Q588 144 674 199T786 325V501H565Q446 501 375 441T303 300Q303 228 348 186T481 144ZM902 1522Q902 1428 843 1363T693 1298Q622 1298 545 1345T417 1391Q374 1391 345 1359T316 1280L208 1306Q208 1399 267 1468T417 1536Q473 1536 557 1489T693 1442Q734 1442 764 1475T794 1554L902 1522Z"/>
<glyph unicode="&#xe4;" horiz-adv-x="1126" glyph-name="adieresis" d="M808 0Q798 49 793 87T786 162Q731 84 643 32T452 -21Q283 -21 195 66T106 304Q106 459 232 547T572 634H786V741Q786 836 728 892T564 947Q468 947 409 899T350 784L163 782L161 788Q154 906 272 1004T575 1102Q759 1102 871 1009T983 739V218Q983 160 989 106T1011 0H808ZM481 144Q588 144 674 199T786 325V501H565Q446 501 375 441T303 300Q303 228 348 186T481 144ZM900 1283H681V1483H900V1283ZM430 1283H211V1483H430V1283Z"/>
<glyph unicode="&#xe5;" horiz-adv-x="1126" glyph-name="aring" d="M808 0Q798 49 793 87T786 162Q731 84 643 32T452 -21Q283 -21 195 66T106 304Q106 459 232 547T572 634H786V741Q786 836 728 892T564 947Q468 947 409 899T350 784L163 782L161 788Q154 906 272 1004T575 1102Q759 1102 871 1009T983 739V218Q983 160 989 106T1011 0H808ZM481 144Q588 144 674 199T786 325V501H565Q446 501 375 441T303 300Q303 228 348 186T481 144ZM378 1412Q378 1484 430 1533T554 1581Q626 1581 677 1533T727 1412Q727 1339 677 1294T554 1248Q480 1248 429 1294T378 1412ZM478 1412Q478 1381 501 1360T554 1338Q584 1338 606 1359T627 1412Q627 1444 606 1467T554 1489Q522 1489 500 1467T478 1412Z"/>
<glyph unicode="&#xe6;" horiz-adv-x="1789" glyph-name="ae" d="M1292 -21Q1156 -21 1052 28T882 166Q826 87 715 33T443 -21Q273 -21 181 66T88 304Q88 461 203 547T538 633H767V720Q767 826 715 887T566 947Q463 947 402 892T341 759L153 777L151 783Q146 921 261 1012T566 1102Q680 1102 768 1062T905 944Q969 1019 1057 1061T1245 1102Q1459 1102 1575 972T1690 614V495H981L979 490Q980 331 1059 232T1292 133Q1395 133 1462 161T1606 239L1673 101Q1620 57 1526 18T1292 -21ZM482 133Q558 133 641 177T767 277V491H540Q420 491 353 436T285 300Q285 226 335 180T482 133ZM1245 947Q1132 947 1063 863T983 645L985 640H1493V671Q1493 793 1433 870T1245 947Z"/>
<glyph unicode="&#xe7;" horiz-adv-x="1072" glyph-name="ccedilla" d="M573 133Q664 133 732 194T800 342H978L981 336Q985 196 861 88T573 -21Q345 -21 221 134T97 520V562Q97 791 222 947T573 1102Q754 1102 870 990T981 715L979 709H800Q800 808 736 878T573 947Q428 947 362 835T295 562V520Q295 357 361 245T573 133ZM623 65527L611 65475Q676 65464 719 65423T762 65302Q762 65206 683 65149T457 65092L450 65201Q522 65201 566 65226T610 65299Q610 65347 574 65366T451 65392L483 65527H623Z"/>
<glyph unicode="&#xe8;" horiz-adv-x="1072" glyph-name="egrave" d="M591 -21Q358 -21 228 128T97 520V564Q97 797 232 950T560 1102Q777 1102 886 967T994 608V504H302L299 499Q299 336 371 235T591 133Q691 133 767 162T896 240L973 112Q915 56 820 18T591 -21ZM560 947Q457 947 390 868T307 664L309 659H797V675Q797 793 739 870T560 947ZM622 1280H464L214 1540L217 1546H447L622 1280Z"/>
<glyph unicode="&#xe9;" horiz-adv-x="1072" glyph-name="eacute" d="M591 -21Q358 -21 228 128T97 520V564Q97 797 232 950T560 1102Q777 1102 886 967T994 608V504H302L299 499Q299 336 371 235T591 133Q691 133 767 162T896 240L973 112Q915 56 820 18T591 -21ZM560 947Q457 947 390 868T307 664L309 659H797V675Q797 793 739 870T560 947ZM634 1542H864L866 1536L597 1276H449L634 1542Z"/>
<glyph unicode="&#xea;" horiz-adv-x="1072" glyph-name="ecircumflex" d="M591 -21Q358 -21 228 128T97 520V564Q97 797 232 950T560 1102Q777 1102 886 967T994 608V504H302L299 499Q299 336 371 235T591 133Q691 133 767 162T896 240L973 112Q915 56 820 18T591 -21ZM560 947Q457 947 390 868T307 664L309 659H797V675Q797 793 739 870T560 947ZM847 1305V1280H686L539 1428L393 1280H233V1306L479 1543H599L847 1305Z"/>
<glyph unicode="&#xeb;" horiz-adv-x="1072" glyph-name="edieresis" d="M591 -21Q358 -21 228 128T97 520V564Q97 797 232 950T560 1102Q777 1102 886 967T994 608V504H302L299 499Q299 336 371 235T591 133Q691 133 767 162T896 240L973 112Q915 56 820 18T591 -21ZM560 947Q457 947 390 868T307 664L309 659H797V675Q797 793 739 870T560 947ZM884 1284H665V1484H884V1284ZM414 1284H195V1484H414V1284Z"/>
<glyph unicode="&#xec;" horiz-adv-x="515" glyph-name="igrave" d="M350 0H153V1082H350V0ZM65872 1258H65714L65464 1518L65467 1524H65697L65872 1258Z"/>
<glyph unicode="&#xed;" horiz-adv-x="515" glyph-name="iacute" d="M350 0H153V1082H350V0ZM347 1520H577L579 1514L310 1254H162L347 1520Z"/>
<glyph unicode="&#xee;" horiz-adv-x="515" glyph-name="icircumflex" d="M350 0H153V1082H350V0ZM66097 1283V1258H65936L65789 1406L65643 1258H65483V1284L65729 1521H65849L66097 1283Z"/>
<glyph unicode="&#xef;" horiz-adv-x="515" glyph-name="idieresis" d="M350 0H153V1082H350V0ZM66134 1262H65915V1462H66134V1262ZM65664 1262H65445V1462H65664V1262Z"/>
<glyph unicode="&#xf0;" horiz-adv-x="1202" glyph-name="eth" d="M873 1297Q968 1193 1020 1056T1072 755V535Q1072 290 928 135T569 -21Q351 -21 212 119T72 466Q72 694 210 836T561 978Q651 978 731 941T862 844L866 849Q857 958 815 1046T704 1200L414 1035L337 1137L593 1283Q554 1305 513 1322T427 1353L487 1517Q566 1498 638 1465T773 1386L991 1511L1068 1409L873 1297ZM573 133Q706 133 791 247T875 535V683Q840 742 760 783T561 823Q430 823 350 719T269 466Q269 334 351 234T573 133Z"/>
<glyph unicode="&#xf1;" horiz-adv-x="1164" glyph-name="ntilde" d="M319 1082L333 921Q387 1007 469 1055T654 1102Q829 1102 925 1000T1021 683V0H824V679Q824 822 768 882T595 942Q504 942 441 906T340 803V0H143V1082H319ZM925 1522Q925 1428 866 1363T716 1298Q645 1298 568 1345T440 1391Q397 1391 368 1359T339 1280L231 1306Q231 1399 290 1468T440 1536Q496 1536 580 1489T716 1442Q757 1442 787 1475T817 1554L925 1522Z"/>
<glyph unicode="&#xf2;" horiz-adv-x="1164" glyph-name="ograve" d="M97 551Q97 791 227 947T580 1102Q805 1102 936 947T1066 551V529Q1066 287 936 133T582 -21Q358 -21 228 134T97 529V551ZM294 529Q294 357 367 245T582 133Q723 133 796 245T869 529V551Q869 721 796 834T580 947Q439 947 367 834T294 551V529ZM665 1279H507L257 1539L260 1545H490L665 1279Z"/>
<glyph unicode="&#xf3;" horiz-adv-x="1164" glyph-name="oacute" d="M97 551Q97 791 227 947T580 1102Q805 1102 936 947T1066 551V529Q1066 287 936 133T582 -21Q358 -21 228 134T97 529V551ZM294 529Q294 357 367 245T582 133Q723 133 796 245T869 529V551Q869 721 796 834T580 947Q439 947 367 834T294 551V529ZM677 1541H907L909 1535L640 1275H492L677 1541Z"/>
<glyph unicode="&#xf4;" horiz-adv-x="1164" glyph-name="ocircumflex" d="M97 551Q97 791 227 947T580 1102Q805 1102 936 947T1066 551V529Q1066 287 936 133T582 -21Q358 -21 228 134T97 529V551ZM294 529Q294 357 367 245T582 133Q723 133 796 245T869 529V551Q869 721 796 834T580 947Q439 947 367 834T294 551V529ZM890 1304V1279H729L582 1427L436 1279H276V1305L522 1542H642L890 1304Z"/>
<glyph unicode="&#xf5;" horiz-adv-x="1164" glyph-name="otilde" d="M97 551Q97 791 227 947T580 1102Q805 1102 936 947T1066 551V529Q1066 287 936 133T582 -21Q358 -21 228 134T97 529V551ZM294 529Q294 357 367 245T582 133Q723 133 796 245T869 529V551Q869 721 796 834T580 947Q439 947 367 834T294 551V529ZM929 1522Q929 1428 870 1363T720 1298Q649 1298 572 1345T444 1391Q401 1391 372 1359T343 1280L235 1306Q235 1399 294 1468T444 1536Q500 1536 584 1489T720 1442Q761 1442 791 1475T821 1554L929 1522Z"/>
<glyph unicode="&#xf6;" horiz-adv-x="1164" glyph-name="odieresis" d="M97 551Q97 791 227 947T580 1102Q805 1102 936 947T1066 551V529Q1066 287 936 133T582 -21Q358 -21 228 134T97 529V551ZM294 529Q294 357 367 245T582 133Q723 133 796 245T869 529V551Q869 721 796 834T580 947Q439 947 367 834T294 551V529ZM927 1283H708V1483H927V1283ZM457 1283H238V1483H457V1283Z"/>
<glyph unicode="&#xf7;" horiz-adv-x="1170" glyph-name="divide" d="M1069 597H71V785H1069V597ZM670 999H472V1202H670V999ZM670 180H472V383H670V180Z"/>
<glyph unicode="&#xf8;" horiz-adv-x="1164" glyph-name="oslash" d="M97 551Q97 791 227 947T580 1102Q636 1102 688 1091T785 1060L859 1209H988L884 998Q972 924 1019 808T1066 551V529Q1066 287 936 133T582 -21Q531 -21 485 -12T397 12L325 -135H196L296 69Q200 140 149 260T97 529V551ZM294 529Q294 438 314 363T375 239H381L713 913Q684 929 651 938T580 947Q439 947 367 834T294 551V529ZM869 551Q869 631 852 702T802 819H796L469 156Q493 144 521 139T582 133Q723 133 796 245T869 529V551Z"/>
<glyph unicode="&#xf9;" horiz-adv-x="1164" glyph-name="ugrave" d="M830 160Q779 73 699 26T514 -21Q337 -21 238 92T139 444V1082H336V442Q336 269 387 204T546 139Q651 139 720 182T823 302V1082H1020V0H843L830 160ZM663 1258H505L255 1518L258 1524H488L663 1258Z"/>
<glyph unicode="&#xfa;" horiz-adv-x="1164" glyph-name="uacute" d="M830 160Q779 73 699 26T514 -21Q337 -21 238 92T139 444V1082H336V442Q336 269 387 204T546 139Q651 139 720 182T823 302V1082H1020V0H843L830 160ZM675 1520H905L907 1514L638 1254H490L675 1520Z"/>
<glyph unicode="&#xfb;" horiz-adv-x="1164" glyph-name="ucircumflex" d="M830 160Q779 73 699 26T514 -21Q337 -21 238 92T139 444V1082H336V442Q336 269 387 204T546 139Q651 139 720 182T823 302V1082H1020V0H843L830 160ZM888 1283V1258H727L580 1406L434 1258H274V1284L520 1521H640L888 1283Z"/>
<glyph unicode="&#xfc;" horiz-adv-x="1164" glyph-name="udieresis" d="M830 160Q779 73 699 26T514 -21Q337 -21 238 92T139 444V1082H336V442Q336 269 387 204T546 139Q651 139 720 182T823 302V1082H1020V0H843L830 160ZM925 1262H706V1462H925V1262ZM455 1262H236V1462H455V1262Z"/>
<glyph unicode="&#xfd;" horiz-adv-x="1030" glyph-name="yacute" d="M474 401L509 265H515L781 1082H1000L545 -166Q504 -275 428 -356T221 -437Q197 -437 160 -431T103 -421L123 -266Q117 -265 159 -268T211 -271Q274 -271 314 -215T381 -91L428 22L26 1082H246L474 401ZM609 1520H839L841 1514L572 1254H424L609 1520Z"/>
<glyph unicode="&#xfe;" horiz-adv-x="1186" glyph-name="thorn" d="M1075 500Q1075 266 963 123T654 -21Q554 -21 479 13T350 113V-416H153V1560H350V962Q403 1030 478 1066T651 1102Q852 1102 964 943T1075 521V500ZM878 521Q878 705 806 824T592 942Q507 942 447 904T350 798V275Q387 208 447 171T594 133Q734 133 806 236T878 500V521Z"/>
<glyph unicode="&#xff;" horiz-adv-x="1030" glyph-name="ydieresis" d="M474 401L509 265H515L781 1082H1000L545 -166Q504 -275 428 -356T221 -437Q197 -437 160 -431T103 -421L123 -266Q117 -265 159 -268T211 -271Q274 -271 314 -215T381 -91L428 22L26 1082H246L474 401ZM859 1262H640V1462H859V1262ZM389 1262H170V1462H389V1262Z"/>
</font>
</defs>
</svg>
