<svg xmlns="http://www.w3.org/2000/svg" width="70" height="135" viewBox="0 0 70 135"><g><g><path fill="#fff" d="M62.928.304a6.525 6.525 0 0 1 6.518 6.517V80.67a6.525 6.525 0 0 1-6.518 6.518h-21.72v4.343H65.1c1.2 0 2.174.973 2.174 2.174v23.891c0 .336-.08.672-.23.97l-4.116 8.231v3.832h4.346v4.344H23.832v-4.344h4.344v-3.447l-8.053-8.05a2.165 2.165 0 0 1-.636-1.536v-15.203c0-1.202.972-2.174 2.174-2.174h6.515v-13.03H6.455c-3.591 0-6.515-2.925-6.515-6.519V6.821A6.524 6.524 0 0 1 6.455.304zm-21.72 95.57v10.86h-4.344v-32.58H32.52v36.925h-4.344v-6.515h-4.344v12.132l8.05 8.051c.409.406.638.961.638 1.537v4.344h26.064v-4.344c0-.338.078-.672.229-.97l4.115-8.23v-21.21h-4.344v10.86H54.24v-10.86h-4.344v10.86H45.55v-10.86zM65.1 6.821a2.174 2.174 0 0 0-2.172-2.172H6.455a2.173 2.173 0 0 0-2.171 2.172V80.67c0 1.2.972 2.174 2.17 2.174h21.722V71.981c0-1.197.97-2.17 2.172-2.17h8.688c1.2 0 2.173.973 2.173 2.17v10.862h21.719A2.174 2.174 0 0 0 65.1 80.67z"/></g><g><path fill="#fff" d="M58.584 8.993c1.201 0 2.172.973 2.172 2.171v13.034a2.172 2.172 0 0 1-2.172 2.171H10.799a2.172 2.172 0 0 1-2.172-2.171V11.164c0-1.198.971-2.171 2.172-2.171zm-2.172 4.343H12.971v8.688h43.441z"/></g><g><path fill="#fff" d="M19.486 30.714a2.17 2.17 0 0 1 2.174 2.172v8.687c0 1.2-.971 2.172-2.174 2.172h-8.687a2.17 2.17 0 0 1-2.172-2.172v-8.687a2.17 2.17 0 0 1 2.172-2.172zm-2.172 4.344H12.97v4.344h4.344z"/></g><g><path fill="#fff" d="M39.035 30.714c1.201 0 2.174.971 2.174 2.172v8.687c0 1.2-.973 2.172-2.174 2.172h-8.687a2.17 2.17 0 0 1-2.172-2.172v-8.687a2.17 2.17 0 0 1 2.172-2.172zm-2.172 4.344h-4.344v4.344h4.344z"/></g><g><path fill="#fff" d="M58.584 30.714a2.17 2.17 0 0 1 2.172 2.172v8.687a2.17 2.17 0 0 1-2.172 2.172h-8.688a2.17 2.17 0 0 1-2.171-2.172v-8.687a2.17 2.17 0 0 1 2.171-2.172zm-2.172 4.344h-4.344v4.344h4.344z"/></g><g><path fill="#fff" d="M19.486 48.089c1.203 0 2.174.973 2.174 2.174v8.687a2.173 2.173 0 0 1-2.174 2.172h-8.687a2.172 2.172 0 0 1-2.172-2.172v-8.687c0-1.201.971-2.174 2.172-2.174zm-2.172 4.344H12.97v4.346h4.344z"/></g><g><path fill="#fff" d="M39.035 48.089c1.201 0 2.174.973 2.174 2.174v8.687a2.174 2.174 0 0 1-2.174 2.172h-8.687a2.171 2.171 0 0 1-2.172-2.172v-8.687c0-1.201.97-2.174 2.172-2.174zm-2.172 4.344h-4.344v4.346h4.344z"/></g><g><path fill="#fff" d="M58.584 48.089c1.201 0 2.172.973 2.172 2.174v8.687a2.172 2.172 0 0 1-2.172 2.172h-8.688a2.171 2.171 0 0 1-2.171-2.172v-8.687c0-1.201.97-2.174 2.171-2.174zm-2.172 4.344h-4.344v4.346h4.344z"/></g><g><path fill="#fff" d="M19.486 65.466c1.203 0 2.174.973 2.174 2.172v8.689a2.173 2.173 0 0 1-2.174 2.172h-8.687a2.172 2.172 0 0 1-2.172-2.172v-8.689c0-1.199.971-2.172 2.172-2.172zm-2.172 4.344H12.97v4.344h4.344z"/></g><g><path fill="#fff" d="M58.584 65.466c1.201 0 2.172.973 2.172 2.172v8.689a2.172 2.172 0 0 1-2.172 2.172h-8.688a2.171 2.171 0 0 1-2.171-2.172v-8.689a2.17 2.17 0 0 1 2.171-2.172zm-2.172 4.344h-4.344v4.344h4.344z"/></g></g></svg>